PathFileType	4	(X/Y/Z)	 s07c0102.trc
DataRate	CameraRate	NumFrames	NumMarkers	Units	OrigDataRate	OrigDataStartFrame	OrigNumFrames
200	200	4	48	mm	200	1	2000
Frame#	Time	racr			lacr			c7			jug			rlel			rdr			llel			ldr			s2			lic			ric			lasi			rasi			rpsi			lpsi			rgt			lgt			rth1			rth2			rth3			rth4			rlfc			rmfc			rsh1			rsh2			rsh3			rsh4			rlmal			rcal			rtoe			rmt5			lth1			lth2			lth4			lth3			llfc			lmfc			lsh1			lsh2			lsh3			lsh4			llmal			lcal			ltoe			lmt5			SBIKE			LBIKE			RBIKE			
		X1	Y1	Z1	X2	Y2	Z2	X3	Y3	Z3	X4	Y4	Z4	X5	Y5	Z5	X6	Y6	Z6	X7	Y7	Z7	X8	Y8	Z8	X9	Y9	Z9	X10	Y10	Z10	X11	Y11	Z11	X12	Y12	Z12	X13	Y13	Z13	X14	Y14	Z14	X15	Y15	Z15	X16	Y16	Z16	X17	Y17	Z17	X18	Y18	Z18	X19	Y19	Z19	X20	Y20	Z20	X21	Y21	Z21	X22	Y22	Z22	X23	Y23	Z23	X24	Y24	Z24	X25	Y25	Z25	X26	Y26	Z26	X27	Y27	Z27	X28	Y28	Z28	X29	Y29	Z29	X30	Y30	Z30	X31	Y31	Z31	X32	Y32	Z32	X33	Y33	Z33	X34	Y34	Z34	X35	Y35	Z35	X36	Y36	Z36	X37	Y37	Z37	X38	Y38	Z38	X39	Y39	Z39	X40	Y40	Z40	X41	Y41	Z41	X42	Y42	Z42	X43	Y43	Z43	X44	Y44	Z44	X45	Y45	Z45	X46	Y46	Z46	X47	Y47	Z47	X48	Y48	Z48	
1	0.0050	466.082273	1385.160109	-65.794582	464.419137	1374.401539	-363.214970	445.412170	1430.564885	-215.727517	394.690898	1294.528241	-213.182162	475.921517	1055.910646	50.491175	718.059476	916.799853	-47.552055	480.265759	1062.311242	-496.977679	724.738154	918.007188	-400.261844	-129.636178	1215.389092	-241.566098	43.259696	1249.935139	-376.297788	36.370399	1239.444281	-82.347866	68.364804	1166.577778	-349.520321	43.454215	1182.434992	-100.790038	-103.154034	1251.855961	-188.060864	-84.097502	1260.361530	-295.476012	-31.622463	1130.190739	-39.391239	-24.696902	1100.370684	-409.428259	108.339286	1073.921183	-40.872533	194.362816	1062.484616	-52.927175	264.533090	1013.552240	-51.502745	205.014626	1092.873491	-71.589361	386.674205	937.275482	-85.771000	381.033948	922.763042	-191.862958	334.822422	804.067742	-62.373985	320.145506	717.342397	-81.788063	268.870564	647.853059	-76.577988	335.507353	715.569570	-118.191035	208.251838	525.176596	-78.115058	138.480650	489.760628	-105.770607	425.444649	445.259823	-120.674839	346.067447	418.465870	-49.855995	31.177383	990.750516	-416.300175	98.248014	934.387341	-418.152996	128.134454	953.423204	-408.208044	127.901945	849.329951	-413.032852	212.673420	691.090934	-379.073775	197.906887	674.565526	-283.117853	123.679544	570.156889	-404.114400	90.518074	492.878095	-384.741797	22.302683	435.102035	-395.826269	92.185591	494.301053	-343.235568	-63.482841	328.964454	-395.876336	-140.665007	297.957013	-364.848374	142.481931	239.479821	-353.437615	61.457275	226.513059	-420.033647	-259.776840	973.097974	-233.031794	-75.680082	83.557835	-438.283158	-82.321232	79.063820	-40.696010	
2	0.0100	466.109457	1385.150602	-65.789282	464.439848	1374.375975	-363.228845	445.413809	1430.587579	-215.752165	394.681707	1294.452314	-213.258646	475.907918	1055.897009	50.496546	718.041869	916.798682	-47.560542	480.253175	1062.281576	-497.002299	724.722511	918.014865	-400.280999	-129.646419	1215.398983	-241.547471	43.231033	1249.919038	-376.295137	36.385286	1239.424388	-82.332680	68.363388	1166.550332	-349.513147	43.442703	1182.435634	-100.791803	-103.159310	1251.881127	-188.056473	-84.105913	1260.382826	-295.479194	-31.640941	1130.180157	-39.382821	-24.694888	1100.391857	-409.423878	108.340374	1073.881629	-40.883745	194.357716	1062.452511	-52.927041	264.508116	1013.515359	-51.504880	205.004605	1092.838496	-71.584658	386.638437	937.199214	-85.796826	380.995145	922.698414	-191.877914	334.782731	804.022969	-62.404785	320.103258	717.285883	-81.823222	268.813771	647.811291	-76.587131	335.457677	715.523411	-118.205800	208.169473	525.136373	-78.132353	138.426760	489.677488	-105.802515	425.408749	445.300407	-120.674381	346.033853	418.473670	-49.853662	31.179447	990.768903	-416.306752	98.252161	934.415172	-418.169116	128.137116	953.451807	-408.231234	127.899549	849.352012	-413.051252	212.665385	691.104504	-379.100343	197.908172	674.573022	-283.139136	123.663529	570.172855	-404.150577	90.518252	492.872931	-384.763373	22.303260	435.077022	-395.861293	92.164084	494.274286	-343.264155	-63.462617	328.926937	-395.891420	-140.657868	297.955087	-364.865602	142.488765	239.471312	-353.431633	61.474895	226.486899	-420.026618	-259.777951	973.101533	-233.035426	-75.678322	83.583560	-438.289622	-82.333588	79.070437	-40.683934	
3	0.0150	466.134417	1385.129118	-65.818946	464.450480	1374.357508	-363.284259	445.403884	1430.589748	-215.766347	394.668503	1294.372150	-213.275035	475.892204	1055.883314	50.487743	718.022106	916.792389	-47.551343	480.235096	1062.241514	-497.035204	724.716824	918.016697	-400.299958	-129.661555	1215.405233	-241.539433	43.247480	1249.922961	-376.315435	36.380877	1239.438696	-82.308620	68.363126	1166.551852	-349.512963	43.448774	1182.423267	-100.773635	-103.161801	1251.879260	-188.040879	-84.114505	1260.382464	-295.463775	-31.648745	1130.177754	-39.373917	-24.709559	1100.418356	-409.435061	108.320596	1073.850080	-40.879147	194.325517	1062.396722	-52.927380	264.517499	1013.466860	-51.502038	204.996095	1092.779172	-71.573784	386.618413	937.153303	-85.808527	380.946534	922.653212	-191.881067	334.716640	803.977662	-62.397387	320.034287	717.244086	-81.831224	268.752961	647.769768	-76.597016	335.400131	715.485398	-118.214256	208.090408	525.091673	-78.124021	138.373798	489.607311	-105.811911	425.379733	445.348067	-120.681039	346.010438	418.489463	-49.858399	31.175645	990.796339	-416.312297	98.245358	934.439078	-418.189500	128.137789	953.466507	-408.227900	127.900326	849.369986	-413.075990	212.647657	691.112559	-379.128300	197.897024	674.579947	-283.160606	123.657602	570.161189	-404.161515	90.517427	492.879109	-384.785442	22.292619	435.091460	-395.881526	92.177784	494.265656	-343.282222	-63.467408	328.935503	-395.910555	-140.647020	297.952030	-364.865097	142.485494	239.470977	-353.445345	61.467262	226.480155	-420.026940	-259.778697	973.101181	-233.038647	-75.686121	83.581340	-438.298282	-82.342906	79.063264	-40.702306	
4	0.0200	466.141589	1385.112061	-65.817374	463.987497	1371.911087	-355.116266	445.379536	1430.595026	-215.780834	394.635673	1294.260633	-213.268165	475.868212	1055.872352	50.470136	718.006149	916.785626	-47.565361	480.214048	1062.206476	-497.058630	724.685166	918.020338	-400.296115	-129.660604	1215.405018	-241.544157	36.955063	1245.823024	-363.805265	36.284372	1239.651626	-82.107812	68.348518	1166.538893	-349.514061	43.449691	1182.402598	-100.775830	-103.179636	1251.902596	-188.022966	-84.120131	1260.400454	-295.468242	-31.651261	1130.161832	-39.391232	-24.413877	1100.394015	-408.531847	108.402350	1073.656032	-40.841424	194.300221	1062.340546	-52.915984	264.419375	1013.357524	-51.566221	204.872551	1092.513358	-71.895351	386.580830	937.109020	-85.814461	380.914590	922.608437	-191.885861	334.683192	803.914421	-62.398215	319.491756	716.866743	-82.046449	268.748272	647.625252	-76.585443	335.588964	715.655393	-117.802496	207.529597	525.718556	-77.621710	140.022275	492.139384	-109.756922	425.388900	445.385668	-120.700607	345.944834	418.206087	-50.007777	31.175610	990.817758	-416.312977	98.490911	933.590152	-417.415374	128.150861	953.564496	-408.396790	127.703135	849.674748	-412.917944	212.639499	691.127258	-379.142931	198.170607	674.583249	-283.037796	123.738311	570.125164	-404.211488	90.632745	492.565401	-384.950283	22.289256	435.080618	-395.888393	92.412694	494.072144	-343.088826	-63.483113	329.291097	-396.397845	-140.659060	297.965788	-364.882804	142.482544	239.469014	-353.438809	61.459515	226.485002	-420.034557	-259.888882	973.143812	-233.449907	-75.689139	83.580468	-438.291577	-82.341343	79.059093	-40.682338	
